<svg xmlns="http://www.w3.org/2000/svg" width="32" height="32" viewBox="0 0 32 32"><g transform="translate(-39 -46)"><circle cx="16" cy="16" r="16" transform="translate(39 46)" fill="#1f3d59"/><path d="M15,7.636a6.975,6.975,0,0,1-.27,1.909H13.393a5.671,5.671,0,0,0,.335-1.909A5.734,5.734,0,0,0,8,1.909a5.662,5.662,0,0,0-2.962.836L6.22,4.455H1.769L3.139,0,4.315,1.7A6.979,6.979,0,0,1,15,7.636Zm-4.043,4.895A5.666,5.666,0,0,1,8,13.364,5.712,5.712,0,0,1,2.607,5.727H1.27a6.98,6.98,0,0,0,10.408,7.848l1.179,1.7,1.369-4.448H9.776l1.18,1.706Z" transform="translate(47 54)" fill="#fff"/></g></svg>