<svg xmlns="http://www.w3.org/2000/svg">
    <symbol id="check" viewBox="0 0 12.762 8.32">
        <path d="M-4880.759-3903.428l4.66,4.66,7.041-7.041" transform="translate(4881.289 3906.341)" fill="none" stroke-linejoin="round" stroke-width="1.5" />
    </symbol>
    <symbol id="close" viewBox="0 0 19.1 19.1">
        <path d="M19.1,2.1,17,0,9.5,7.4,2.1,0,0,2.1,7.4,9.5,0,17l2.1,2.1,7.4-7.4L17,19.1,19.1,17,11.7,9.5Z" />
    </symbol>
    <symbol id="arrow-down" viewBox="0 0 8.4 4.9">
        <path d="M4.2,4.9,0,.7.7,0,4.2,3.5,7.7,0l.7.7Z"/>
    </symbol>
    <symbol id="logo" viewBox="0 0 124.598 46.342">
        <g transform="translate(-21.497 -106.492)">
            <g transform="translate(83.497 126.42)">
                <rect width="2.713" height="17.876" fill="#383838"/>
                <path d="M19.493,0H13a1.254,1.254,0,0,0-1.254,1.254V16.622A1.254,1.254,0,0,0,13,17.876h6.49a1.254,1.254,0,0,0,1.254-1.254V12.28H17.915v2.763H14.581V2.832h3.334V6.106h2.832V1.254A1.254,1.254,0,0,0,19.493,0Z" transform="translate(-6.204)" fill="#383838"/>
                <path d="M43.347,0H35.791V17.876h7.556a.938.938,0,0,0,.938-.938V11.7a2.762,2.762,0,0,0-2.762-2.762,2.762,2.762,0,0,0,2.762-2.762V.938A.938.938,0,0,0,43.347,0Zm-1.8,10.482a.4.4,0,0,1,.38.431v4.6H38.149V10.482Zm.38-3.489a.4.4,0,0,1-.4.391H38.151V2.36h3.776Z" transform="translate(-18.898)" fill="#383838"/>
                <path d="M67.66,0H61.17a1.254,1.254,0,0,0-1.254,1.254V16.622a1.254,1.254,0,0,0,1.254,1.254h6.49a1.254,1.254,0,0,0,1.254-1.254V12.28H66.082v2.763H62.748V2.832h3.334V6.106h2.832V1.254A1.254,1.254,0,0,0,67.66,0Z" transform="translate(-31.636)" fill="#383838"/>
                <path d="M91.512,13H85.671a.8.8,0,0,0-.8.8V23.944a.8.8,0,0,0,.8.8h5.84a.8.8,0,0,0,.8-.8V13.8a.8.8,0,0,0-.8-.8Zm-1.564,9.38H87.234V15.36h2.714Z" transform="translate(-44.815 -6.864)" fill="#383838"/>
                <rect width="2.301" height="11.74" transform="translate(49.971 6.135)" fill="#383838"/>
                <rect width="2.301" height="2.714" transform="translate(49.971 1.946)" fill="#383838"/>
                <path d="M123.941,13h-1.9a4.026,4.026,0,0,0-2.891.814V13h-2.271v11.74h2.272V16.318a4.73,4.73,0,0,1,2.891-1.2v9.619h2.272V13.365A.368.368,0,0,0,123.941,13Z" transform="translate(-61.712 -6.863)" fill="#383838"/>
            </g>
            <g transform="translate(21.497 106.492)">
                <rect width="51.774" height="2.802" transform="translate(1.741 43.542)" fill="#66c4cc"/>
                <rect width="42.883" height="1.399" transform="translate(5.929 40.742)" fill="#66c4cc"/>
                <path d="M39.313,159.483H39V142.188h.316a1.156,1.156,0,0,0,0-2.313H34.687a1.156,1.156,0,0,0,0,2.313h.267v17.295h-.267a1.157,1.157,0,0,0,0,2.313h4.626a1.157,1.157,0,0,0,0-2.313Z" transform="translate(-25.712 -122.454)" fill="#66c4cc"/>
                <path d="M108.313,159.483H108V142.188h.316a1.156,1.156,0,0,0,0-2.313h-4.626a1.156,1.156,0,0,0,0,2.313h.267v17.295h-.267a1.157,1.157,0,0,0,0,2.313h4.626a1.157,1.157,0,0,0,0-2.313Z" transform="translate(-62.528 -122.454)" fill="#66c4cc"/>
                <g transform="translate(17.913 19.295)">
                    <path d="M64.483,143.891a9.312,9.312,0,1,0,9.312,9.311A9.322,9.322,0,0,0,64.483,143.891Zm0,17.224A7.912,7.912,0,1,1,72.4,153.2,7.922,7.922,0,0,1,64.483,161.115Z" transform="translate(-55.171 -143.891)" fill="#66c4cc"/>
                    <path d="M70.784,156.734a2.49,2.49,0,0,0-2.238,1.274h-.028l-.07-1.12H67.357c.042.56.056,1.133.056,1.833v.4H65.531v.452h1.882V161H65.969v.452h1.444v2.211h1.231v-4.072a1.771,1.771,0,0,1,.084-.574,1.749,1.749,0,0,1,1.651-1.259c1.161,0,1.567.909,1.567,2v3.9h1.231V161.45H74.86V161H73.177v-1.381c0-.016,0-.031,0-.047h2.136v-.452H73.15A2.354,2.354,0,0,0,70.784,156.734Z" transform="translate(-60.699 -150.744)" fill="#66c4cc"/>
                </g>
                <path d="M72.023,118.476,44.4,102.525h0L16.767,118.476l1.6,2.777L44.4,106.228,70.42,121.253Z" transform="translate(-16.767 -102.525)" fill="#66c4cc"/>
                <path d="M68.344,130.891H43.915l-4.665,2.8H73.008Z" transform="translate(-28.763 -117.66)" fill="#66c4cc"/>
            </g>
        </g>
    </symbol>
    <symbol id="overview" viewBox="0 0 18 16.5">
        <path d="M18,2.5H6V1H18Zm0,2.25H6v1.5H18ZM18,8.5H6V10H18Zm0,3.75H6v1.5H18ZM18,16H6v1.5H18ZM4.5,1H0V5.5H4.5Zm0,6H0v4.5H4.5Zm0,6H0v4.5H4.5Z" transform="translate(0 -1)"/>
    </symbol>
    <symbol id="asset-exchange" viewBox="0 0 19.199 17.4">
        <path d="M19.2,3.5,15.7,0,12.3,3.5l1,1L15,2.8V15.9H12.5V5.7H11V15.9H8.5V8.7H7v7.2H5V11.7H3.5v4.2H0v1.5H16.5v-.7h0v-.8h0V2.9l1.6,1.6Z"/>
    </symbol>
    <symbol id="message" viewBox="0 0 18 13.5">
        <path d="M9,10.285.011,3H17.989Zm0,1.931L0,4.922V16.5H18V4.922Z" transform="translate(0 -3)"/>
    </symbol>
    <symbol id="search" viewBox="0 0 15.881 16.008">
        <path d="M15.873,14.431l-4.137-4.137a6.49,6.49,0,1,0-1.591,1.547L14.3,16l1.569-1.569ZM1.9,6.487a4.585,4.585,0,1,1,4.585,4.585A4.585,4.585,0,0,1,1.9,6.487Z" transform="translate(0.008 0.008)"/>
    </symbol>
    <symbol id="gold-coin" viewBox="0 0 20 20">
        <defs>
            <clipPath id="a">
                <rect width="20" height="20" fill="none"/>
            </clipPath>
            <linearGradient id="b" x1="0.347" y1="0.026" x2="0.671" y2="0.976" gradientUnits="objectBoundingBox">
                <stop offset="0" stop-color="#efc10a"/>
                <stop offset="1" stop-color="#d9af08"/>
            </linearGradient>
        </defs>
        <g clip-path="url(#a)">
            <circle cx="10" cy="10" r="10" fill="#fff"/>
            <path d="M6.108,19.214A10.033,10.033,0,1,1,10,20,9.968,9.968,0,0,1,6.108,19.214ZM.833,10A9.167,9.167,0,1,0,10,.833,9.177,9.177,0,0,0,.833,10Zm1.333,0A7.833,7.833,0,1,1,10,17.833,7.833,7.833,0,0,1,2.167,10Z" fill="url(#b)"/>
            <path d="M6.755,0A3.2,3.2,0,0,0,3.877,1.638H3.841L3.751.2h-1.4c.054.72.072,1.457.072,2.357v.51H0v.581H2.419V5.482H.563v.581H2.419V8.906H4V3.67a2.277,2.277,0,0,1,.108-.738A2.249,2.249,0,0,1,6.234,1.314c1.493,0,2.015,1.169,2.015,2.572v5.02H9.831V6.063h2.163V5.482H9.831V3.706c0-.021,0-.04,0-.061h2.747V3.065H9.8A3.026,3.026,0,0,0,6.755,0Z" transform="translate(3.04 7.329) rotate(-13)" fill="#fff"/>
        </g>
    </symbol>
    <symbol id="silver-coin" viewBox="0 0 24 24">
        <defs>
            <clipPath id="clip-path">
                <rect width="24" height="24" fill="none"/>
            </clipPath>
            <linearGradient id="linear-gradient" x1="0.385" y1="0.034" x2="0.677" y2="0.968" gradientUnits="objectBoundingBox">
                <stop offset="0" stop-color="#bfbfbf"/>
                <stop offset="1" stop-color="#999"/>
            </linearGradient>
        </defs>
        <g id="coin_silver_24px" clip-path="url(#clip-path)">
            <circle id="Ellipse_13" data-name="Ellipse 13" cx="12" cy="12" r="12" fill="#fff"/>
            <path id="base" d="M7.329,23.057A12.04,12.04,0,1,1,12,24,11.962,11.962,0,0,1,7.329,23.057ZM1,12A11,11,0,1,0,12,1,11.012,11.012,0,0,0,1,12Zm1.6,0A9.4,9.4,0,1,1,12,21.4,9.4,9.4,0,0,1,2.6,12Z" fill="url(#linear-gradient)"/>
            <path id="n--" d="M8.106,0A3.841,3.841,0,0,0,4.652,1.965H4.609L4.5.237H2.817c.065.864.086,1.749.086,2.828v.612H0v.7H2.9v2.2H.675v.7H2.9v3.411H4.8V4.4a2.732,2.732,0,0,1,.13-.885A2.7,2.7,0,0,1,7.48,1.577c1.792,0,2.418,1.4,2.418,3.087v6.024h1.9V7.276h2.6v-.7H11.8V4.448c0-.025,0-.048,0-.073h3.3v-.7H11.756C11.455.742,9.442,0,8.106,0Z" transform="translate(3.648 8.795) rotate(-13)" fill="#fff"/>
        </g>
    </symbol>
    <symbol id="copy" viewBox="0 0 24 24">
        <g transform="translate(-313 -150)">
            <rect width="24" height="24" rx="2" transform="translate(313 150)"/>
            <path d="M11.473,4.927H15.4V15.4H4.927V11.473H1V1H11.473Zm3.273.655H5.582v9.164h9.164Zm-3.927-.655V1.655H1.655v9.164H4.927V4.927Z" transform="translate(316.8 153.8)" fill="#fff" fill-rule="evenodd"/>
        </g>
    </symbol>
    <symbol id="setting" viewBox="0 0 24 24">
        <g transform="translate(-313 -150)">
            <rect width="24" height="24" rx="2" transform="translate(313 150)"/>
            <path d="M16,9.077V6.923c-1.1-.391-1.8-.5-2.146-1.346h0c-.351-.847.067-1.423.565-2.471L12.9,1.581c-1.041.5-1.622.917-2.471.565h0C9.577,1.8,9.467,1.1,9.077,0H6.923c-.388,1.09-.5,1.795-1.346,2.146h0C4.729,2.5,4.155,2.081,3.1,1.581L1.581,3.1c.5,1.045.917,1.623.565,2.471S1.09,6.535,0,6.923V9.077c1.088.387,1.795.5,2.146,1.346s-.076,1.444-.565,2.471L3.1,14.419c1.041-.5,1.623-.917,2.471-.565h0c.847.351.957,1.053,1.346,2.146h2.16c.388-1.091.5-1.793,1.351-2.148h0c.841-.349,1.413.067,2.465.567L14.418,12.9c-.5-1.042-.917-1.622-.565-2.471S14.911,9.465,16,9.077Zm-8,1.59A2.667,2.667,0,1,1,10.667,8,2.667,2.667,0,0,1,8,10.667Z" transform="translate(317 154.3)" fill="#fff"/>
        </g>
    </symbol>
    <symbol id="exit" viewBox="0 0 24.008 20">
        <path d="M14,19v-.083A8,8,0,1,1,14,5.083V2.838a10,10,0,1,0,0,18.324Zm4-9.592L20.963,12,18,14.592V13H10V11h8ZM16,5V9H8v6h8v4l8-7Z" transform="translate(0.008 -2)"/>
    </symbol>
    <symbol id="contacts" viewBox="0 0 20 13.334">
        <path d="M8.432,14.053c1.911-.441,3.69-.827,2.828-2.454C8.638,6.647,10.565,4,13.333,4c2.823,0,4.7,2.749,2.073,7.6-.887,1.637.958,2.022,2.828,2.454C19.89,14.436,20,15.245,20,16.646v.688H6.669C6.669,15.5,6.522,14.494,8.432,14.053ZM0,17.333H5c-.023-5.452,2.5-3.081,2.5-7.417A2.384,2.384,0,0,0,5,7.333c-2.077,0-3.522,1.986-1.555,5.7.646,1.22-.687,1.51-2.121,1.841C.082,15.16,0,15.767,0,16.817Z" transform="translate(0 -4)"/>
    </symbol>
    <symbol id="transaction-history" viewBox="0 0 17.773 15.9">
        <g transform="translate(-232.826 -95.801)">
            <path d="M247.1,95.8l-1,1,1.6,1.7H233.9V100h13.8l-1.6,1.6,1,1.1,3.5-3.5Z"/>
            <g transform="translate(249.526 105.3) rotate(90)">
                <rect width="15" height="1.5" transform="translate(3.65 0.05) rotate(90)"/>
                <path d="M2.2,0V13.8L.5,12.1l-1,1.1,3.4,3.5,3.5-3.5L5.3,12.1,3.7,13.8V0Z"/>
            </g>
        </g>
    </symbol>
    <symbol id="deal-history" viewBox="0 0 16 15.225">
        <g transform="translate(0 -12.75)">
            <g transform="translate(0 12.75)">
                <path d="M8.4,12.75a7.471,7.471,0,0,0-6.56,3.84L0,14.75v5.2H5.2L2.96,17.71a6.032,6.032,0,1,1-.24,4.64H1.04a7.612,7.612,0,1,0,7.36-9.6Zm-1.2,4v4.08l3.76,2.24.64-1.04L8.4,20.11V16.75Z" transform="translate(0 -12.75)" opacity="0.9"/>
            </g>
        </g>
    </symbol>
    <symbol id="open-orders" viewBox="0 0 16 16">
        <path d="M8,0A8,8,0,1,1,0,8,8,8,0,0,1,8,0ZM8,1.333A6.667,6.667,0,1,1,1.333,8,6.667,6.667,0,0,1,8,1.333Zm1.333,8v-2L12.667,10,9.333,12.667v-2h-6V9.333Zm-2.667-4v-2L3.333,6,6.667,8.667v-2h6V5.333Z" fill-rule="evenodd"/>
    </symbol>
    <symbol id="remove-history" viewBox="0 0 12.443 16">
        <g transform="translate(-51)">
            <g transform="translate(51)">
                <path d="M51.889,14.222A1.783,1.783,0,0,0,53.667,16h7.111a1.783,1.783,0,0,0,1.778-1.778V3.556H51.889ZM63.444.889H60.333L59.444,0H55l-.889.889H51V2.667H63.444Z" transform="translate(-51)"/>
            </g>
        </g>
    </symbol>
    <symbol id="plus" viewBox="0 0 15 15">
        <g transform="translate(112.526 -241) rotate(90)">
            <g transform="translate(249.5 97.526) rotate(90)" fill="none" stroke="#89a" stroke-width="1">
                <rect width="15" height="1.5" stroke="none"/>
                <rect x="0.5" y="0.5" width="14" height="0.5" fill="none"/>
            </g>
            <g transform="translate(241 104.026)" fill="none" stroke="#89a" stroke-width="1">
                <rect width="15" height="1.5" stroke="none"/>
                <rect x="0.5" y="0.5" width="14" height="0.5" fill="none"/>
            </g>
        </g>
    </symbol>
    <symbol id="export" viewBox="0 0 18 19.637">
        <path d="M19,0V16.364H12.455V14.727h4.909V1.636H2.636V14.727H7.545v1.636H1V0ZM9.182,10.636H5.909L10,5.727l4.091,4.909H10.818v9H9.182Z" transform="translate(-1)" fill="#89a" fill-rule="evenodd"/>
    </symbol>
    <symbol id="import" viewBox="0 0 18 19.637">
        <path d="M19,19.636V3.273H12.455V4.909h4.909V18H2.636V4.909H7.545V3.273H1V19.636ZM9.182,9H5.909L10,13.909,14.091,9H10.818V0H9.182Z" transform="translate(-1 0)" fill="#89a" fill-rule="evenodd"/>
    </symbol>
    <symbol id="gift" viewBox="0 0 18 16.854">
        <g transform="translate(0 -16.308)">
            <g transform="translate(1.125 25.286)">
                <g>
                    <path d="M32,271.692v6.75a1.126,1.126,0,0,0,1.125,1.125H38.75v-7.875Z" transform="translate(-32 -271.692)"/>
                </g>
            </g>
            <g transform="translate(0 16.308)">
                <g>
                    <path d="M16.875,20.786H13.316a4.371,4.371,0,0,0,.628-.5,2.351,2.351,0,0,0,0-3.31,2.377,2.377,0,0,0-3.3,0c-.488.489-1.782,2.482-1.6,3.813H8.959c.178-1.331-1.116-3.323-1.6-3.813a2.379,2.379,0,0,0-3.3,0,2.355,2.355,0,0,0,0,3.31,4.452,4.452,0,0,0,.629.5H1.125A1.127,1.127,0,0,0,0,21.911V23.6a.563.563,0,0,0,.563.563H7.875v-2.25h2.25v2.25h7.313A.563.563,0,0,0,18,23.6V21.911A1.126,1.126,0,0,0,16.875,20.786Zm-9.066-.037a.371.371,0,0,1-.208.037,5.532,5.532,0,0,1-2.746-1.3,1.227,1.227,0,0,1,0-1.723,1.2,1.2,0,0,1,1.7,0C7.317,18.53,8.071,20.478,7.809,20.749Zm2.59.037c-.16,0-.207-.036-.207-.037-.262-.271.492-2.22,1.25-2.982a1.212,1.212,0,0,1,1.7,1.723A5.531,5.531,0,0,1,10.4,20.786Z" transform="translate(0 -16.308)"/>
                </g>
            </g>
            <g transform="translate(10.125 25.286)">
                <g>
                    <path d="M288,271.692v7.875h5.625a1.125,1.125,0,0,0,1.125-1.125v-6.75Z" transform="translate(-288 -271.692)"/>
                </g>
            </g>
        </g>
    </symbol>
    <symbol id="notification" viewBox="0 0 24 28.234">
        <g transform="translate(-38.25)">
            <g transform="translate(38.25)">
                <path d="M50.25,28.235a2.832,2.832,0,0,0,2.824-2.824H47.426a2.832,2.832,0,0,0,2.824,2.824Zm9.176-8.471V12a9.085,9.085,0,0,0-7.059-8.894V2.118a2.118,2.118,0,1,0-4.235,0v.988A9.085,9.085,0,0,0,41.074,12v7.765L38.25,22.588V24h24V22.588Z" transform="translate(-38.25)"/>
            </g>
        </g>
    </symbol>
    <symbol id="icon-balance-gold" viewBox="0 0 36 36">
        <path d="M18,36A18,18,0,1,1,36,18,18.053,18.053,0,0,1,18,36ZM18,1A17,17,0,1,0,35,18,16.986,16.986,0,0,0,18,1Z"/>
        <path d="M22,28V26h6v2Zm-7,0V26h6v2ZM8,28V26h6v2Zm14-3V23h6v2Zm-7,0V23h6v2ZM8,25V23h6v2Zm14-3V20h6v2Zm-7,0V20h6v2ZM8,22V20h6v2Zm7-3V17h6v2ZM8,19V17h6v2Zm7-3V14h6v2ZM8,16V14h6v2Zm7-3V11h6v2Zm0-3V8h6v2Z"/>
    </symbol>
    <symbol id="right-arrow" viewBox="0 0 18 18">
        <path d="M9,0a9,9,0,1,0,9,9A9,9,0,0,0,9,0ZM7.824,13.5,6.763,12.443,10.194,9,6.763,5.566,7.824,4.5,12.315,9,7.824,13.5Z" transform="translate(0)" fill="#fff"/>
    </symbol>
    <symbol id="icon-balance-silver" viewBox="0 0 36 36">
        <path d="M18,36A18,18,0,1,1,36,18,18.053,18.053,0,0,1,18,36ZM18,1A17,17,0,1,0,35,18,16.986,16.986,0,0,0,18,1Z"/>
        <path d="M22,28V8h6V28Zm-7,0V14h6V28ZM8,28V20h6v8Z"/>
    </symbol>
    <symbol id="symbol-message" viewBox="0 0 36 36">
        <g transform="translate(-697 -474)">
            <path d="M715,510a18,18,0,1,1,18-18A18.053,18.053,0,0,1,715,510Zm0-35a17,17,0,1,0,17,17A16.986,16.986,0,0,0,715,475Z"/>
            <path d="M715,493.3l-9-7.3h18Zm-4.1-1.4-4.9-4v9.4Zm8.2,0,4.9,5.4v-9.4l-4.9,4Zm-1.2,1-2.9,2.4-2.9-2.4-6.1,6.6h18Z"/>
        </g>
    </symbol>
    <symbol id="round-link" viewBox="0 0 36 36">
        <path d="M18,36A18,18,0,1,1,36,18,18.053,18.053,0,0,1,18,36ZM18,1A17,17,0,1,0,35,18,16.986,16.986,0,0,0,18,1Z"/>
        <g transform="translate(715.024 479.246) rotate(45)">
            <path id="XMLID_104_" d="M-818.3,170.2l-2.8,2.8h0a2.959,2.959,0,0,1-4.1,0,2.96,2.96,0,0,1,0-4.1h0l2.8-2.8a.967.967,0,0,0,0-1.4.853.853,0,0,0-1.3,0l-2.8,2.8h0a4.8,4.8,0,0,0,.1,6.9,4.769,4.769,0,0,0,6.8,0h0l2.8-2.8a.967.967,0,0,0,0-1.4c-.6-.4-1.2-.4-1.5,0Z"/>
            <path d="M-810,162.6a4.908,4.908,0,0,0-4.9-4.9,4.762,4.762,0,0,0-3.4,1.4h0l-2.8,2.8a.967.967,0,0,0,0,1.4.967.967,0,0,0,1.4,0h0l2.8-2.8h0a2.959,2.959,0,0,1,4.1,0,2.96,2.96,0,0,1,0,4.1h0l-2.8,2.8a.967.967,0,0,0,0,1.4.967.967,0,0,0,1.4,0l2.8-2.8h0A4.762,4.762,0,0,0-810,162.6Z"/>
            <path d="M-822.5,170.2a.967.967,0,0,0,1.4,0l5.5-5.5a.967.967,0,0,0,0-1.4.853.853,0,0,0-1.3,0l-5.5,5.5A1.071,1.071,0,0,0-822.5,170.2Z"/>
        </g>
    </symbol>
    <symbol id="replenishment" viewBox="0 0 14.4 19.9">
        <path d="M13,11.3,8.1,16.2V0h-2V16L1.4,11.3,0,12.7l7.2,7.2,7.2-7.2Z"/>
    </symbol>
    <symbol id="transfer" viewBox="0 0 14.699 14.9">
        <path d="M4.5,0V2h7L0,13.5l1.4,1.4L12.7,3.6v6.6h2V0Z"/>
    </symbol>
    <symbol id="round-check" viewBox="0 0 32 32">
        <g transform="translate(-30 -40)">
            <circle cx="16" cy="16" r="16" transform="translate(30 40)"/>
            <path d="M38.1,55.6l5.7,5.7L54,51.1" fill="none" stroke="#fff" stroke-linejoin="round" stroke-width="2"/>
        </g>
    </symbol>
    <symbol id="round-error" viewBox="0 0 32 32">
        <circle cx="16" cy="16" r="16"/>
        <path d="M10.3,20.2,14.5,16l-4.2-4.2,1.4-1.4,4.2,4.2,4.2-4.2,1.4,1.4L17.4,16l4.2,4.2-1.4,1.4L16,17.4l-4.2,4.2Z" fill="#fff"/>
    </symbol>
    <symbol id="eye" viewBox="0 0 24 14">
        <path d="M14,12a2,2,0,1,1-2-2A2,2,0,0,1,14,12Zm10-.449S19.748,19,12.015,19C4.835,19,0,11.551,0,11.551S4.446,5,12.015,5C19.709,5,24,11.551,24,11.551ZM16,12a4,4,0,1,0-4,4A4,4,0,0,0,16,12Z" transform="translate(0 -5)" fill="#f2d091"/>
    </symbol>
    <symbol id="eye-close" viewBox="0 0 24 24">
        <path d="M11.885 14.988l3.104-3.098.011.11c0 1.654-1.346 3-3 3l-.115-.012zm8.048-8.032l-3.274 3.268c.212.554.341 1.149.341 1.776 0 2.757-2.243 5-5 5-.631 0-1.229-.13-1.785-.344l-2.377 2.372c1.276.588 2.671.972 4.177.972 7.733 0 11.985-8.449 11.985-8.449s-1.415-2.478-4.067-4.595zm1.431-3.536l-18.619 18.58-1.382-1.422 3.455-3.447c-3.022-2.45-4.818-5.58-4.818-5.58s4.446-7.551 12.015-7.551c1.825 0 3.456.426 4.886 1.075l3.081-3.075 1.382 1.42zm-13.751 10.922l1.519-1.515c-.077-.264-.132-.538-.132-.827 0-1.654 1.346-3 3-3 .291 0 .567.055.833.134l1.518-1.515c-.704-.382-1.496-.619-2.351-.619-2.757 0-5 2.243-5 5 0 .852.235 1.641.613 2.342z"/>
    </symbol>
    <symbol id="my-active" viewBox="0 0 16 14.668">
        <path d="M711.889,23778.666v-1.332H719v1.332Zm-8.886,0v-1.332h7.109v1.332Zm8.886-2.668v-1.332H719V23776Zm-8.886,0v-1.332h7.109V23776Zm8.886-2.664V23772H719v1.336Zm-8.886,0V23772h7.109v1.336Zm8.886-2.668v-1.332H719v1.332Zm-8.886,0v-1.332h7.109v1.332Zm0-2.668v-1.332h7.109V23768Zm0-2.664V23764h7.109v1.336Z" transform="translate(-703.003 -23763.998)"/>
    </symbol>
</svg>